# xmcd CD Database Entry
#
# Track frame offsets:
# 150
# 30008
# 43521
# 67379
# 97673
# 121773
# 148761
# 171617
# 200647
# 228840
#
# Disc length: 3505 seconds
#
# Revision: 6
# Processed by: cddbd v1.4PL0 Copyright (c) Steve Scherf et al.
# Submitted via: tcd 2.0b
#
DISCID=840daf0a
DTITLE=Abraham Afewerki
DYEAR=1900
DGENRE=
TTITLE0=Abey Ala
TTITLE1=Nay MebtsA Desiet
TTITLE2=Ab Hiwetey
TTITLE3=Fikrey Tsin Elki SemIni
TTITLE4=Kulih Beli
TTITLE5=Kindey Gizie Halifu
TTITLE6=Men Yirebh Intetefelalena
TTITLE7=ZiAmna Haimanot
TTITLE8=Beyney Aykewn'n
TTITLE9=Tesfa Eya Sinkey
EXTD=
EXTT0=
EXTT1=
EXTT2=
EXTT3=
EXTT4=
EXTT5=
EXTT6=
EXTT7=
EXTT8=
EXTT9=
PLAYORDER=
